<svg width="16" height="16" viewBox="0 0 16 16" fill="none" xmlns="http://www.w3.org/2000/svg">
<mask id="path-1-inside-1_37_42019" fill="white">
<path d="M2.58859 2.71569L2.64645 2.64645C2.82001 2.47288 3.08944 2.4536 3.28431 2.58859L3.35355 2.64645L8 7.293L12.6464 2.64645C12.8417 2.45118 13.1583 2.45118 13.3536 2.64645C13.5488 2.84171 13.5488 3.15829 13.3536 3.35355L8.707 8L13.3536 12.6464C13.5271 12.82 13.5464 13.0894 13.4114 13.2843L13.3536 13.3536C13.18 13.5271 12.9106 13.5464 12.7157 13.4114L12.6464 13.3536L8 8.707L3.35355 13.3536C3.15829 13.5488 2.84171 13.5488 2.64645 13.3536C2.45118 13.1583 2.45118 12.8417 2.64645 12.6464L7.293 8L2.64645 3.35355C2.47288 3.17999 2.4536 2.91056 2.58859 2.71569L2.64645 2.64645L2.58859 2.71569Z"/>
</mask>
<path d="M2.58859 2.71569L2.64645 2.64645C2.82001 2.47288 3.08944 2.4536 3.28431 2.58859L3.35355 2.64645L8 7.293L12.6464 2.64645C12.8417 2.45118 13.1583 2.45118 13.3536 2.64645C13.5488 2.84171 13.5488 3.15829 13.3536 3.35355L8.707 8L13.3536 12.6464C13.5271 12.82 13.5464 13.0894 13.4114 13.2843L13.3536 13.3536C13.18 13.5271 12.9106 13.5464 12.7157 13.4114L12.6464 13.3536L8 8.707L3.35355 13.3536C3.15829 13.5488 2.84171 13.5488 2.64645 13.3536C2.45118 13.1583 2.45118 12.8417 2.64645 12.6464L7.293 8L2.64645 3.35355C2.47288 3.17999 2.4536 2.91056 2.58859 2.71569L2.64645 2.64645L2.58859 2.71569Z" fill="#212121"/>
<path d="M2.97229 3.03627L3.03015 2.96703L2.26274 2.32587L2.20489 2.39511L2.97229 3.03627ZM3.28431 2.58859L3.92547 1.82118L3.89085 1.79226L3.85376 1.76657L3.28431 2.58859ZM3.35355 2.64645L4.06067 1.93935L4.02904 1.90772L3.99471 1.87904L3.35355 2.64645ZM8 7.293L7.29289 8.0001L8 8.70723L8.70712 8.0001L8 7.293ZM12.6464 2.64645L11.9393 1.93934L11.9393 1.93935L12.6464 2.64645ZM13.3536 2.64645L14.0607 1.93934V1.93934L13.3536 2.64645ZM13.3536 3.35355L14.0607 4.06067L14.0607 4.06066L13.3536 3.35355ZM8.707 8L7.9999 7.29288L7.29277 8L7.9999 8.70712L8.707 8ZM13.3536 12.6464L14.0607 11.9393L14.0607 11.9393L13.3536 12.6464ZM13.4114 13.2843L14.1788 13.9255L14.2077 13.8908L14.2334 13.8538L13.4114 13.2843ZM13.3536 13.3536L14.0607 14.0607L14.0923 14.029L14.121 13.9947L13.3536 13.3536ZM12.7157 13.4114L12.0745 14.1788L12.1092 14.2077L12.1462 14.2334L12.7157 13.4114ZM12.6464 13.3536L11.9393 14.0607L11.971 14.0923L12.0053 14.121L12.6464 13.3536ZM8 8.707L8.70712 7.9999L8 7.29277L7.29288 7.9999L8 8.707ZM3.35355 13.3536L4.06066 14.0607L4.06067 14.0607L3.35355 13.3536ZM2.64645 13.3536L1.93934 14.0607H1.93934L2.64645 13.3536ZM2.64645 12.6464L1.93935 11.9393L1.93934 11.9393L2.64645 12.6464ZM7.293 8L8.0001 8.70712L8.70723 8L8.0001 7.29289L7.293 8ZM2.64645 3.35355L1.93934 4.06066L1.93935 4.06067L2.64645 3.35355ZM3.35355 3.35355C3.17924 3.52787 2.91025 3.54598 2.71485 3.41061L3.85376 1.76657C3.26863 1.36121 2.46079 1.41789 1.93934 1.93934L3.35355 3.35355ZM2.64315 3.356L2.71239 3.41385L3.99471 1.87904L3.92547 1.82118L2.64315 3.356ZM2.64644 3.35355L7.29289 8.0001L8.70711 6.5859L4.06067 1.93935L2.64644 3.35355ZM8.70712 8.0001L13.3536 3.35355L11.9393 1.93935L7.29288 6.5859L8.70712 8.0001ZM13.3536 3.35355C13.1583 3.54882 12.8417 3.54882 12.6464 3.35355L14.0607 1.93934C13.4749 1.35355 12.5251 1.35355 11.9393 1.93934L13.3536 3.35355ZM12.6464 3.35355C12.4512 3.15829 12.4512 2.84171 12.6464 2.64645L14.0607 4.06066C14.6464 3.47487 14.6464 2.52513 14.0607 1.93934L12.6464 3.35355ZM12.6465 2.64644L7.9999 7.29288L9.4141 8.70712L14.0607 4.06067L12.6465 2.64644ZM7.9999 8.70712L12.6465 13.3536L14.0607 11.9393L9.4141 7.29288L7.9999 8.70712ZM12.6464 13.3536C12.4721 13.1792 12.454 12.9102 12.5894 12.7148L14.2334 13.8538C14.6388 13.2686 14.5821 12.4608 14.0607 11.9393L12.6464 13.3536ZM12.644 12.6432L12.5861 12.7124L14.121 13.9947L14.1788 13.9255L12.644 12.6432ZM12.6464 12.6464C12.8208 12.4721 13.0898 12.454 13.2852 12.5894L12.1462 14.2334C12.7314 14.6388 13.5392 14.5821 14.0607 14.0607L12.6464 12.6464ZM13.3568 12.644L13.2876 12.5861L12.0053 14.121L12.0745 14.1788L13.3568 12.644ZM13.3536 12.6465L8.70712 7.9999L7.29288 9.4141L11.9393 14.0607L13.3536 12.6465ZM7.29288 7.9999L2.64644 12.6465L4.06067 14.0607L8.70712 9.4141L7.29288 7.9999ZM2.64645 12.6464C2.84171 12.4512 3.15829 12.4512 3.35355 12.6464L1.93934 14.0607C2.52513 14.6464 3.47487 14.6464 4.06066 14.0607L2.64645 12.6464ZM3.35355 12.6464C3.54882 12.8417 3.54882 13.1583 3.35355 13.3536L1.93934 11.9393C1.35355 12.5251 1.35355 13.4749 1.93934 14.0607L3.35355 12.6464ZM3.35355 13.3536L8.0001 8.70712L6.5859 7.29288L1.93935 11.9393L3.35355 13.3536ZM8.0001 7.29289L3.35355 2.64644L1.93935 4.06067L6.5859 8.70711L8.0001 7.29289ZM3.35355 2.64645C3.52787 2.82076 3.54598 3.08975 3.41061 3.28515L1.76657 2.14624C1.36121 2.73137 1.41789 3.53921 1.93934 4.06066L3.35355 2.64645Z" fill="black" mask="url(#path-1-inside-1_37_42019)"/>
</svg>
