<svg width="14" height="14" viewBox="0 0 14 14" fill="none" xmlns="http://www.w3.org/2000/svg">
<path d="M9.18898 1.75C9.91383 1.75 10.5015 2.33763 10.5015 3.0625L10.5012 3.50175L10.939 3.50209C11.9857 3.50311 12.834 4.35095 12.8356 5.39726L12.8375 8.89566C12.8386 9.62022 12.2512 10.2084 11.5262 10.2089L10.5 10.2083V10.9375C10.5 11.6623 9.91237 12.25 9.18752 12.25H4.81252C4.08765 12.25 3.50002 11.6623 3.50002 10.9375L3.50055 10.2083L2.47919 10.2084C1.75431 10.2084 1.16669 9.62074 1.16669 8.89589V5.39792C1.16669 4.35088 2.01548 3.50209 3.06252 3.50209L3.49944 3.50175L3.50002 3.0625C3.50002 2.33763 4.08765 1.75 4.81252 1.75H9.18898ZM9.18752 7.875H4.81252C4.5709 7.875 4.37502 8.07088 4.37502 8.3125V10.9375C4.37502 11.1791 4.5709 11.375 4.81252 11.375H9.18752C9.42914 11.375 9.62502 11.1791 9.62502 10.9375V8.3125C9.62502 8.07088 9.42914 7.875 9.18752 7.875ZM10.9386 4.37709H3.06252C2.49873 4.37709 2.04169 4.83413 2.04169 5.39792V8.89589C2.04169 9.13751 2.23756 9.33339 2.47919 9.33339L3.50002 9.33333V8.3125C3.50002 7.58765 4.08765 7 4.81252 7H9.18752C9.91237 7 10.5 7.58765 10.5 8.3125L10.5005 9.33339L11.5399 9.33362C11.7749 9.32598 11.9628 9.13307 11.9625 8.89653L11.9606 5.39815C11.9598 4.83467 11.5025 4.37764 10.9386 4.37709ZM9.18898 2.625H4.81252C4.5709 2.625 4.37502 2.82088 4.37502 3.0625L4.37444 3.50175H9.62619L9.62648 3.0625C9.62648 2.82088 9.43059 2.625 9.18898 2.625Z" fill="#0078D7"/>
</svg>
