<svg width="14" height="14" viewBox="0 0 14 14" fill="none" xmlns="http://www.w3.org/2000/svg">
<path d="M9.18895 1.75C9.9138 1.75 10.5014 2.33763 10.5014 3.0625L10.5012 3.50175L10.9389 3.50209C11.9857 3.50311 12.834 4.35095 12.8355 5.39726L12.8375 8.89566C12.8386 9.62022 12.2512 10.2085 11.5261 10.2089L10.5 10.2083V10.9375C10.5 11.6623 9.91234 12.25 9.18749 12.25H4.81249C4.08762 12.25 3.49999 11.6623 3.49999 10.9375L3.50052 10.2083L2.47916 10.2084C1.75428 10.2084 1.16666 9.62074 1.16666 8.89589V5.39792C1.16666 4.35088 2.01545 3.50209 3.06249 3.50209L3.49941 3.50175L3.49999 3.0625C3.49999 2.33763 4.08762 1.75 4.81249 1.75H9.18895ZM9.18749 7.875H4.81249C4.57087 7.875 4.37499 8.07088 4.37499 8.3125V10.9375C4.37499 11.1791 4.57087 11.375 4.81249 11.375H9.18749C9.42911 11.375 9.62499 11.1791 9.62499 10.9375V8.3125C9.62499 8.07088 9.42911 7.875 9.18749 7.875ZM10.9385 4.37709H3.06249C2.4987 4.37709 2.04166 4.83413 2.04166 5.39792V8.89589C2.04166 9.13751 2.23753 9.33339 2.47916 9.33339L3.49999 9.33333V8.3125C3.49999 7.58765 4.08762 7 4.81249 7H9.18749C9.91234 7 10.5 7.58765 10.5 8.3125L10.5005 9.33339L11.5399 9.33362C11.7749 9.32598 11.9628 9.13307 11.9625 8.89653L11.9605 5.39815C11.9597 4.83467 11.5024 4.37764 10.9385 4.37709ZM9.18895 2.625H4.81249C4.57087 2.625 4.37499 2.82088 4.37499 3.0625L4.37441 3.50175H9.62616L9.62645 3.0625C9.62645 2.82088 9.43056 2.625 9.18895 2.625Z" fill="#0078D7"/>
</svg>
