<svg width="14" height="14" viewBox="0 0 14 14" fill="none" xmlns="http://www.w3.org/2000/svg">
<path d="M9.18892 1.75C9.91377 1.75 10.5014 2.33763 10.5014 3.0625L10.5011 3.50175L10.9389 3.50209C11.9857 3.50311 12.8339 4.35095 12.8355 5.39726L12.8374 8.89566C12.8385 9.62022 12.2512 10.2084 11.5261 10.2089L10.5 10.2083V10.9375C10.5 11.6623 9.91231 12.25 9.18746 12.25H4.81246C4.08759 12.25 3.49996 11.6623 3.49996 10.9375L3.50049 10.2083L2.47913 10.2084C1.75425 10.2084 1.16663 9.62074 1.16663 8.89589V5.39792C1.16663 4.35088 2.01542 3.50209 3.06246 3.50209L3.49938 3.50175L3.49996 3.0625C3.49996 2.33763 4.08759 1.75 4.81246 1.75H9.18892ZM9.18746 7.875H4.81246C4.57084 7.875 4.37496 8.07088 4.37496 8.3125V10.9375C4.37496 11.1791 4.57084 11.375 4.81246 11.375H9.18746C9.42908 11.375 9.62496 11.1791 9.62496 10.9375V8.3125C9.62496 8.07088 9.42908 7.875 9.18746 7.875ZM10.9385 4.37709H3.06246C2.49867 4.37709 2.04163 4.83413 2.04163 5.39792V8.89589C2.04163 9.13751 2.2375 9.33339 2.47913 9.33339L3.49996 9.33333V8.3125C3.49996 7.58765 4.08759 7 4.81246 7H9.18746C9.91231 7 10.5 7.58765 10.5 8.3125L10.5005 9.33339L11.5399 9.33362C11.7748 9.32598 11.9628 9.13307 11.9624 8.89653L11.9605 5.39815C11.9597 4.83467 11.5024 4.37764 10.9385 4.37709ZM9.18892 2.625H4.81246C4.57084 2.625 4.37496 2.82088 4.37496 3.0625L4.37438 3.50175H9.62613L9.62642 3.0625C9.62642 2.82088 9.43053 2.625 9.18892 2.625Z" fill="#0078D7"/>
</svg>
