<svg width="14" height="14" viewBox="0 0 14 14" fill="none" xmlns="http://www.w3.org/2000/svg">
<path d="M9.18904 1.75C9.91389 1.75 10.5015 2.33763 10.5015 3.0625L10.5012 3.50175L10.939 3.50209C11.9858 3.50311 12.8341 4.35095 12.8356 5.39726L12.8376 8.89566C12.8387 9.62022 12.2513 10.2084 11.5262 10.2089L10.5001 10.2083V10.9375C10.5001 11.6623 9.91243 12.25 9.18758 12.25H4.81258C4.08771 12.25 3.50008 11.6623 3.50008 10.9375L3.50061 10.2083L2.47925 10.2084C1.75437 10.2084 1.16675 9.62074 1.16675 8.89589V5.39792C1.16675 4.35088 2.01554 3.50209 3.06258 3.50209L3.4995 3.50175L3.50008 3.0625C3.50008 2.33763 4.08771 1.75 4.81258 1.75H9.18904ZM9.18758 7.875H4.81258C4.57096 7.875 4.37508 8.07088 4.37508 8.3125V10.9375C4.37508 11.1791 4.57096 11.375 4.81258 11.375H9.18758C9.4292 11.375 9.62508 11.1791 9.62508 10.9375V8.3125C9.62508 8.07088 9.4292 7.875 9.18758 7.875ZM10.9386 4.37709H3.06258C2.49879 4.37709 2.04175 4.83413 2.04175 5.39792V8.89589C2.04175 9.13751 2.23763 9.33339 2.47925 9.33339L3.50008 9.33333V8.3125C3.50008 7.58765 4.08771 7 4.81258 7H9.18758C9.91243 7 10.5001 7.58765 10.5001 8.3125L10.5006 9.33339L11.54 9.33362C11.775 9.32598 11.9629 9.13307 11.9626 8.89653L11.9606 5.39815C11.9598 4.83467 11.5025 4.37764 10.9386 4.37709ZM9.18904 2.625H4.81258C4.57096 2.625 4.37508 2.82088 4.37508 3.0625L4.3745 3.50175H9.62625L9.62654 3.0625C9.62654 2.82088 9.43066 2.625 9.18904 2.625Z" fill="#0078D7"/>
</svg>
