<svg width="488" height="351" viewBox="0 0 488 351" fill="none" xmlns="http://www.w3.org/2000/svg">
<g clip-path="url(#clip0_37_42021)">
<path d="M393.392 247.372C393.808 247.313 394.017 247.283 394.404 247.016C396.189 246.127 397.767 245.267 399.553 244.377C401.13 243.517 401.697 241.526 400.866 240.157C400.005 238.581 398.013 238.013 396.643 238.844C395.066 239.704 393.488 240.564 391.703 241.454C390.125 242.314 389.528 244.097 390.389 245.673C390.775 246.893 392.142 247.548 393.392 247.372ZM412.59 235.951C413.007 235.892 413.602 235.596 413.989 235.329C416.877 233.222 419.764 231.115 422.622 228.8C423.962 227.761 424.083 225.621 423.044 224.281C422.004 222.942 419.862 222.821 418.523 223.86C415.843 225.937 413.164 228.015 410.276 230.121C408.937 231.16 408.578 233.122 409.409 234.49C410.419 235.621 411.549 236.098 412.59 235.951ZM433.223 218.171C433.848 218.082 434.651 217.756 435.009 217.281C437.391 214.609 439.774 211.936 441.919 209.085C442.991 207.66 442.725 205.786 441.299 204.714C439.872 203.642 437.998 203.908 436.925 205.333C434.959 207.947 432.577 210.619 430.373 213.054C429.271 214.271 429.358 216.382 430.577 217.483C431.498 217.99 432.39 218.288 433.223 218.171ZM449.22 196.163C450.262 196.016 451.036 195.482 451.542 194.561C453.211 191.352 454.881 188.144 456.312 184.757C456.938 183.182 456.256 181.368 454.651 180.533C453.075 179.907 451.26 180.588 450.425 182.193C449.172 185.342 447.474 188.342 445.983 191.313C445.149 192.917 445.623 194.761 447.228 195.596C447.941 196.132 448.596 196.251 449.22 196.163ZM459.212 170.759C460.462 170.582 461.593 169.573 461.862 168.473C462.639 164.966 463.417 161.459 463.956 157.774C464.136 156.05 463.067 154.503 461.312 154.114C459.587 153.933 458.039 155.002 457.651 156.755C457.261 159.995 456.484 163.502 455.677 166.8C455.288 168.554 456.357 170.101 457.933 170.727C458.588 170.847 459.004 170.788 459.212 170.759ZM462.157 143.591C463.823 143.356 464.895 141.93 464.897 140.444C464.811 136.847 464.518 133.279 464.045 129.949L464.016 129.741C463.78 128.076 462.115 126.825 460.449 127.061C458.783 127.296 457.532 128.96 457.768 130.625L457.798 130.833C458.27 134.163 458.534 137.522 458.56 140.703C458.588 142.398 460.074 143.886 461.77 143.858C461.948 143.621 462.157 143.591 462.157 143.591ZM457.307 116.89C457.515 116.86 457.723 116.831 457.932 116.801C459.539 116.15 460.373 114.545 459.899 112.702C458.773 109.252 457.229 105.861 455.716 102.678C454.855 101.101 453.071 100.505 451.464 101.156C449.886 102.017 449.29 103.799 449.942 105.406C451.426 108.38 452.732 111.593 453.829 114.834C454.452 116.232 455.849 117.096 457.307 116.89ZM444.363 93.0318C444.988 92.9434 445.375 92.6763 445.97 92.3798C447.31 91.3411 447.431 89.2009 446.392 87.8618C444.074 85.005 441.579 82.3858 438.874 79.796C437.656 78.6945 435.544 78.781 434.442 79.9984C433.34 81.2158 433.427 83.3266 434.646 84.4281C437.082 86.631 439.34 89.0716 441.628 91.7203C442.192 92.702 443.322 93.1791 444.363 93.0318ZM237.528 104.034C239.194 103.798 240.446 102.135 240.209 100.47C239.973 98.8049 238.309 97.5542 236.643 97.7899C233.102 98.2907 229.741 98.554 226.409 99.0253C224.743 99.261 223.462 100.716 223.49 102.411C223.726 104.076 225.182 105.356 226.878 105.328C230.418 104.827 233.988 104.535 237.528 104.034ZM254.13 101.261L254.338 101.231C257.64 100.552 261.151 99.8427 264.632 98.9256C266.269 98.4818 267.312 96.8481 266.867 95.2125C266.423 93.577 264.788 92.5344 263.151 92.9782C259.67 93.8953 256.368 94.5748 253.065 95.2543C251.429 95.6982 250.178 97.3613 250.622 98.9969C251.007 100.216 252.672 101.467 254.13 101.261ZM423.262 76.0601C424.303 75.9127 425.077 75.3787 425.554 74.2496C426.389 72.6454 425.707 70.8311 424.101 69.9967C421.128 68.5065 417.977 67.2539 414.646 66.2389L413.754 65.9405C411.999 65.5518 410.422 66.4119 409.796 67.9867C409.407 69.7401 410.268 71.3167 411.844 71.943L412.528 72.2709C415.412 73.1367 418.326 74.2106 421.091 75.7303C421.983 76.0287 422.637 76.1484 423.262 76.0601ZM210.398 105.961C211.856 105.755 213.166 104.508 213.138 102.813C213.11 101.119 211.833 99.6012 209.929 99.6583C206.538 99.7134 203.117 99.5604 199.667 99.1992C197.942 99.0186 196.453 100.503 196.273 102.227C196.093 103.951 197.578 105.439 199.303 105.62C202.932 105.743 206.353 105.896 209.982 106.02C209.952 105.812 210.19 105.991 210.398 105.961ZM280.76 94.3088C280.968 94.2793 280.968 94.2793 281.176 94.2498C284.657 93.3327 287.901 92.237 291.353 91.1118C292.989 90.6679 294.002 88.8261 293.35 87.22C292.905 85.5844 291.062 84.5713 289.455 85.2233C286.212 86.319 282.73 87.2361 279.487 88.3319C277.85 88.7757 276.837 90.6175 277.282 92.2531C277.696 93.6806 279.094 94.5445 280.76 94.3088ZM183.094 103.667C184.343 103.49 185.475 102.481 185.685 100.965C185.865 99.241 184.796 97.6938 183.041 97.3051C179.562 96.7358 176.29 96.1371 172.989 95.3302C171.235 94.9415 169.687 96.0097 169.298 97.7631C168.91 99.5166 169.979 101.064 171.733 101.452C175.243 102.23 178.752 103.007 182.231 103.577C182.469 103.755 182.886 103.696 183.094 103.667ZM306.796 86.167C307.004 86.1375 307.212 86.1081 307.421 86.0786L317.359 82.7619C318.996 82.318 320.009 80.4762 319.357 78.8701C318.704 77.264 317.069 76.2214 315.462 76.8734L305.523 80.1901C303.887 80.634 302.873 82.4758 303.526 84.0819C303.733 85.5388 305.338 86.3732 306.796 86.167ZM396.974 68.9512C398.432 68.745 399.534 67.5276 399.773 66.2199C399.954 64.4959 398.676 62.9782 396.951 62.7976C393.501 62.4365 389.842 62.1048 386.243 62.1894C384.548 62.2169 383.029 63.4933 383.087 65.3959C383.144 67.2985 384.392 68.6081 386.296 68.5511C389.687 68.496 393.137 68.8572 396.379 69.2478C396.349 69.0396 396.766 68.9807 396.974 68.9512ZM332.803 77.8171C333.011 77.7877 333.219 77.7582 333.219 77.7582C336.879 76.6035 340.152 75.7159 343.217 74.8577C344.854 74.4139 345.867 72.5721 345.422 70.9365C344.978 69.3009 343.343 68.2583 341.498 68.7316C338.225 69.6192 334.952 70.5069 331.292 71.6616C329.656 72.1054 328.643 73.9472 329.087 75.5828C329.71 76.9808 331.345 78.0233 332.803 77.8171ZM359.254 71.1028C359.254 71.1028 359.462 71.0734 359.254 71.1028C362.973 70.3644 366.305 69.893 369.637 69.4216C371.303 69.1859 372.554 67.5228 372.318 65.8578C372.082 64.1927 370.418 62.942 368.752 63.1777C365.419 63.6491 361.879 64.1499 358.16 64.8883C356.494 65.124 355.243 66.7872 355.717 68.6309C356.132 70.0583 357.588 71.3385 359.254 71.1028ZM156.686 97.2119C157.936 97.0351 158.889 96.2634 159.158 95.1639C159.784 93.5891 158.893 91.8043 157.109 91.2075C153.779 90.1925 150.627 88.9399 147.267 87.7168C145.691 87.0905 143.906 87.98 143.279 89.5548C142.653 91.1295 143.543 92.9143 145.119 93.5406C148.479 94.7637 151.839 95.9869 155.199 97.21C155.616 97.1511 156.062 97.3003 156.686 97.2119ZM131.235 87.0125C132.276 86.8652 133.258 86.3016 133.527 85.2021C134.362 83.5978 133.68 81.7836 132.074 80.9492C129.101 79.459 125.891 77.7901 122.918 76.2999C121.312 75.4655 119.497 76.1469 118.633 77.543C117.798 79.1472 118.48 80.9615 119.878 81.8254C123.088 83.4942 126.299 85.1631 129.48 86.6238C129.956 86.9811 130.61 87.1009 131.235 87.0125ZM107.274 73.8422C108.107 73.7244 109.089 73.1608 109.417 72.4775C110.281 71.0814 109.986 69.0001 108.381 68.1657C105.586 66.4379 102.554 64.5315 99.7305 62.5956C98.3038 61.5236 96.2508 62.0263 95.3867 63.4224C94.3143 64.8479 94.8178 66.8998 96.2149 67.7637C99.2469 69.6701 102.1 71.8142 105.103 73.5125C105.995 73.8109 106.649 73.9306 107.274 73.8422Z" fill="#E1DFDD"/>
<path d="M134.289 41.1083L77.3114 99.7698L33.3275 38.4803L134.289 41.1083Z" fill="#FFE5B9"/>
<path d="M105.081 49.9023L116.51 90.8015L68.4598 67.3135L105.081 49.9023Z" fill="#FFE5B9"/>
<path opacity="0.5" d="M112.253 63.8366L104.114 72.2168L71.5729 54.225L112.253 63.8366Z" fill="#F7B548"/>
<rect x="230.027" y="129.996" width="25.128" height="220.949" fill="#E1DFDD"/>
<path d="M245.894 137.352H389.559V238.658H245.894V137.352Z" fill="#F8F8FB"/>
<path d="M258.045 144.709C255.284 144.709 253.045 146.947 253.045 149.709V226.303C253.045 229.064 255.284 231.303 258.045 231.303H377.197C379.958 231.303 382.197 229.064 382.197 226.303V149.709C382.197 146.947 379.958 144.709 377.197 144.709H258.045ZM238.394 135.068C238.354 132.278 240.604 129.996 243.393 129.996H253.045H382.197H391.921C394.683 129.996 396.921 132.235 396.921 134.996V144.709V231.303V241.015C396.921 243.777 394.683 246.015 391.921 246.015H382.197H253.256H243.531C240.77 246.015 238.531 243.777 238.531 241.015V231.303V144.709L238.394 135.068Z" fill="#E1DFDD"/>
<path d="M352.749 231.303H282.494C287.121 216.381 301.004 205.451 317.621 205.451C334.238 205.451 348.121 216.381 352.749 231.303Z" fill="#CCE3FF"/>
<path d="M317.621 199.355C306.817 199.355 298.059 190.604 298.059 179.808C298.059 169.013 306.817 160.262 317.621 160.262C328.425 160.262 337.183 169.013 337.183 179.808C337.183 190.604 328.425 199.355 317.621 199.355Z" fill="#CCE3FF"/>
<path d="M97.1794 137.352H240.845V238.658H97.1794V137.352Z" fill="#F8F8FB"/>
<path d="M109.331 144.709C106.57 144.709 104.331 146.947 104.331 149.709V226.303C104.331 229.064 106.57 231.303 109.331 231.303H228.483C231.244 231.303 233.483 229.064 233.483 226.303V149.709C233.483 146.947 231.244 144.709 228.483 144.709H109.331ZM233.483 129.996H243.207C245.968 129.996 248.207 132.235 248.207 134.996V144.709V231.303V241.015C248.207 243.777 245.968 246.015 243.207 246.015H233.483H104.541H94.8174C92.0559 246.015 89.8174 243.777 89.8174 241.015V231.303V144.709V134.996C89.8174 132.235 92.0559 129.996 94.8174 129.996H233.483Z" fill="#E1DFDD"/>
<path d="M204.035 231.303H133.779C138.407 216.381 152.29 205.451 168.907 205.451C185.314 205.451 199.407 216.381 204.035 231.303Z" fill="#CCE3FF"/>
<path d="M168.907 199.355C158.103 199.355 149.345 190.604 149.345 179.808C149.345 169.013 158.103 160.262 168.907 160.262C179.711 160.262 188.469 169.013 188.469 179.808C188.469 190.604 179.711 199.355 168.907 199.355Z" fill="#CCE3FF"/>
<path d="M245.894 242.861H389.559V344.168H245.894V242.861Z" fill="#F8F8FB"/>
<path d="M258.053 250.227C255.289 250.222 253.045 252.462 253.045 255.227V332.023C253.045 334.784 255.284 337.023 258.045 337.023H377.197C379.958 337.023 382.197 334.784 382.197 332.023V255.42C382.197 252.662 379.963 250.425 377.205 250.421L258.053 250.227ZM238.393 240.576C238.353 237.788 240.603 235.506 243.392 235.506H253.045H382.197H391.921C394.683 235.506 396.921 237.744 396.921 240.506V250.218V337.023V346.735C396.921 349.497 394.683 351.735 391.921 351.735H382.197H253.256H243.531C240.77 351.735 238.531 349.497 238.531 346.735V337.023V250.429L238.393 240.576Z" fill="#E1DFDD"/>
<path d="M317.621 305.076C306.817 305.076 298.059 296.324 298.059 285.529C298.059 274.734 306.817 265.982 317.621 265.982C328.425 265.982 337.183 274.734 337.183 285.529C337.183 296.324 328.425 305.076 317.621 305.076Z" fill="#CCE3FF"/>
<path d="M97.1794 242.861H240.845V344.168H97.1794V242.861Z" fill="#F8F8FB"/>
<path d="M109.339 250.227C106.575 250.222 104.331 252.462 104.331 255.227V332.023C104.331 334.784 106.57 337.023 109.331 337.023H228.483C231.244 337.023 233.483 334.784 233.483 332.023V255.42C233.483 252.662 231.249 250.425 228.491 250.421L109.339 250.227ZM89.607 235.506H104.331H233.483H243.207C245.968 235.506 248.207 237.744 248.207 240.506V250.218V337.023V346.735C248.207 349.497 245.968 351.735 243.207 351.735H233.483H104.541H94.8174C92.0559 351.735 89.8174 349.497 89.8174 346.735V337.023V250.429V235.716C89.8174 235.6 89.7232 235.506 89.607 235.506V235.506Z" fill="#E1DFDD"/>
<path d="M282.494 337.022H352.749C348.121 322.099 334.238 311.17 317.621 311.17C309.418 311.17 301.845 313.902 295.535 318.526C289.225 323.15 284.807 329.456 282.494 337.022Z" fill="#CCE3FF"/>
<path d="M133.779 337.022H204.035C199.407 322.099 185.524 311.17 168.907 311.17C158.81 311.17 149.555 315.374 143.035 321.889C138.828 326.093 135.672 331.137 133.779 337.022Z" fill="#CCE3FF"/>
<path d="M168.907 305.076C158.103 305.076 149.345 296.324 149.345 285.529C149.345 274.734 158.103 265.982 168.907 265.982C179.711 265.982 188.469 274.734 188.469 285.529C188.469 296.324 179.711 305.076 168.907 305.076Z" fill="#CCE3FF"/>
</g>
<defs>
<clipPath id="clip0_37_42021">
<rect width="488" height="351" fill="white" transform="matrix(-1 0 0 1 488 0)"/>
</clipPath>
</defs>
</svg>
