<svg width="32" height="23" viewBox="0 0 32 23" fill="none" xmlns="http://www.w3.org/2000/svg">
<path d="M10 14C10.1406 14 10.2708 14.026 10.3906 14.0781C10.5104 14.1302 10.6146 14.2031 10.7031 14.2969C10.7969 14.3854 10.8698 14.4896 10.9219 14.6094C10.974 14.7292 11 14.8594 11 15C11 15.1406 10.974 15.2708 10.9219 15.3906C10.8698 15.5104 10.7969 15.6172 10.7031 15.7109C10.6146 15.7995 10.5104 15.8698 10.3906 15.9219C10.2708 15.974 10.1406 16 10 16C9.85937 16 9.72917 15.974 9.60937 15.9219C9.48958 15.8698 9.38281 15.7995 9.28906 15.7109C9.20052 15.6172 9.13021 15.5104 9.07812 15.3906C9.02604 15.2708 9 15.1406 9 15C9 14.8594 9.02604 14.7292 9.07812 14.6094C9.13021 14.4896 9.20052 14.3854 9.28906 14.2969C9.38281 14.2031 9.48958 14.1302 9.60937 14.0781C9.72917 14.026 9.85938 14 10 14ZM16 14C16.1406 14 16.2708 14.026 16.3906 14.0781C16.5104 14.1302 16.6146 14.2031 16.7031 14.2969C16.7969 14.3854 16.8698 14.4896 16.9219 14.6094C16.974 14.7292 17 14.8594 17 15C17 15.1406 16.974 15.2708 16.9219 15.3906C16.8698 15.5104 16.7969 15.6172 16.7031 15.7109C16.6146 15.7995 16.5104 15.8698 16.3906 15.9219C16.2708 15.974 16.1406 16 16 16C15.8594 16 15.7292 15.974 15.6094 15.9219C15.4896 15.8698 15.3828 15.7995 15.2891 15.7109C15.2005 15.6172 15.1302 15.5104 15.0781 15.3906C15.026 15.2708 15 15.1406 15 15C15 14.8594 15.026 14.7292 15.0781 14.6094C15.1302 14.4896 15.2005 14.3854 15.2891 14.2969C15.3828 14.2031 15.4896 14.1302 15.6094 14.0781C15.7292 14.026 15.8594 14 16 14ZM22 14C22.1406 14 22.2708 14.026 22.3906 14.0781C22.5104 14.1302 22.6146 14.2031 22.7031 14.2969C22.7969 14.3854 22.8698 14.4896 22.9219 14.6094C22.974 14.7292 23 14.8594 23 15C23 15.1406 22.974 15.2708 22.9219 15.3906C22.8698 15.5104 22.7969 15.6172 22.7031 15.7109C22.6146 15.7995 22.5104 15.8698 22.3906 15.9219C22.2708 15.974 22.1406 16 22 16C21.8594 16 21.7292 15.974 21.6094 15.9219C21.4896 15.8698 21.3828 15.7995 21.2891 15.7109C21.2005 15.6172 21.1302 15.5104 21.0781 15.3906C21.026 15.2708 21 15.1406 21 15C21 14.8594 21.026 14.7292 21.0781 14.6094C21.1302 14.4896 21.2005 14.3854 21.2891 14.2969C21.3828 14.2031 21.4896 14.1302 21.6094 14.0781C21.7292 14.026 21.8594 14 22 14Z" fill="#666666"/>
<path d="M10 7C10.1406 7 10.2708 7.02604 10.3906 7.07813C10.5104 7.13021 10.6146 7.20313 10.7031 7.29688C10.7969 7.38542 10.8698 7.48958 10.9219 7.60938C10.974 7.72917 11 7.85938 11 8C11 8.14063 10.974 8.27083 10.9219 8.39063C10.8698 8.51042 10.7969 8.61719 10.7031 8.71094C10.6146 8.79948 10.5104 8.86979 10.3906 8.92188C10.2708 8.97396 10.1406 9 10 9C9.85937 9 9.72917 8.97396 9.60937 8.92188C9.48958 8.86979 9.38281 8.79948 9.28906 8.71094C9.20052 8.61719 9.13021 8.51042 9.07812 8.39063C9.02604 8.27083 9 8.14062 9 8C9 7.85938 9.02604 7.72917 9.07812 7.60938C9.13021 7.48958 9.20052 7.38542 9.28906 7.29688C9.38281 7.20313 9.48958 7.13021 9.60937 7.07813C9.72917 7.02604 9.85938 7 10 7ZM16 7C16.1406 7 16.2708 7.02604 16.3906 7.07813C16.5104 7.13021 16.6146 7.20313 16.7031 7.29688C16.7969 7.38542 16.8698 7.48958 16.9219 7.60938C16.974 7.72917 17 7.85938 17 8C17 8.14063 16.974 8.27083 16.9219 8.39063C16.8698 8.51042 16.7969 8.61719 16.7031 8.71094C16.6146 8.79948 16.5104 8.86979 16.3906 8.92188C16.2708 8.97396 16.1406 9 16 9C15.8594 9 15.7292 8.97396 15.6094 8.92188C15.4896 8.86979 15.3828 8.79948 15.2891 8.71094C15.2005 8.61719 15.1302 8.51042 15.0781 8.39063C15.026 8.27083 15 8.14063 15 8C15 7.85938 15.026 7.72917 15.0781 7.60938C15.1302 7.48958 15.2005 7.38542 15.2891 7.29688C15.3828 7.20313 15.4896 7.13021 15.6094 7.07813C15.7292 7.02604 15.8594 7 16 7ZM22 7C22.1406 7 22.2708 7.02604 22.3906 7.07813C22.5104 7.13021 22.6146 7.20313 22.7031 7.29688C22.7969 7.38542 22.8698 7.48958 22.9219 7.60938C22.974 7.72917 23 7.85938 23 8C23 8.14063 22.974 8.27083 22.9219 8.39063C22.8698 8.51042 22.7969 8.61719 22.7031 8.71094C22.6146 8.79948 22.5104 8.86979 22.3906 8.92188C22.2708 8.97396 22.1406 9 22 9C21.8594 9 21.7292 8.97396 21.6094 8.92188C21.4896 8.86979 21.3828 8.79948 21.2891 8.71094C21.2005 8.61719 21.1302 8.51042 21.0781 8.39063C21.026 8.27083 21 8.14063 21 8C21 7.85938 21.026 7.72917 21.0781 7.60938C21.1302 7.48958 21.2005 7.38542 21.2891 7.29688C21.3828 7.20313 21.4896 7.13021 21.6094 7.07813C21.7292 7.02604 21.8594 7 22 7Z" fill="#666666"/>
</svg>
