<svg width="20" height="20" viewBox="0 0 20 20" fill="none" xmlns="http://www.w3.org/2000/svg">
<path d="M3.08215 9.5594C2.40186 9.515 1.87685 8.92366 2.02528 8.25827C2.29572 7.04591 2.84616 5.90734 3.63945 4.93687C4.69449 3.64621 6.12635 2.71736 7.73499 2.28011C9.34363 1.84285 11.0487 1.91904 12.6119 2.49801C14.1751 3.07699 15.5185 4.12984 16.4542 5.50945C17.3899 6.88906 17.8713 8.52652 17.8311 10.193C17.7908 11.8596 17.231 13.4719 16.2298 14.8047C15.2286 16.1376 13.8361 17.1244 12.2467 17.6273C11.0517 18.0054 9.79027 18.0957 8.56385 17.8986C7.89075 17.7905 7.5355 17.084 7.74586 16.4355C7.95621 15.787 8.65458 15.447 9.33354 15.5086C10.0608 15.5745 10.798 15.4962 11.502 15.2735C12.6008 14.9258 13.5636 14.2435 14.2559 13.322C14.9481 12.4005 15.3351 11.2857 15.363 10.1335C15.3908 8.98124 15.0579 7.8491 14.411 6.89524C13.764 5.94138 12.8353 5.21345 11.7544 4.81314C10.6736 4.41284 9.49477 4.36017 8.38256 4.66248C7.27035 4.9648 6.28036 5.607 5.55091 6.49937C5.08362 7.07102 4.73821 7.72705 4.53055 8.42711C4.33668 9.08071 3.76245 9.6038 3.08215 9.5594Z" fill="url(#paint0_angular_194072_18970)"/>
<defs>
<radialGradient id="paint0_angular_194072_18970" cx="0" cy="0" r="1" gradientUnits="userSpaceOnUse" gradientTransform="translate(9.91669 10) rotate(90) scale(8 7.91669)">
<stop stop-color="#646DBC"/>
<stop offset="0.145833" stop-color="#646DBC" stop-opacity="0"/>
<stop offset="0.817708" stop-color="#646DBC"/>
</radialGradient>
</defs>
</svg>
