<svg width="28" height="28" viewBox="0 0 28 28" fill="none" xmlns="http://www.w3.org/2000/svg">
<path d="M19.5 5.875C21.7782 5.875 23.625 7.72183 23.625 10C23.625 11.2471 23.0714 12.365 22.1971 13.1212C22.4748 13.8697 22.625 14.6694 22.625 15.5C22.625 17.89 21.382 20.0188 19.4446 21.4143C19.1624 21.6176 18.8653 21.8054 18.5551 21.9763L18.5183 21.9964C17.2037 22.7125 15.6559 23.125 14 23.125C12.3441 23.125 10.7963 22.7124 9.48166 21.9964C9.1745 21.8291 8.88004 21.6452 8.59991 21.4462L8.55539 21.4143C6.61803 20.0188 5.375 17.89 5.375 15.5C5.375 14.6694 5.52525 13.8697 5.80294 13.1212C4.92856 12.365 4.375 11.2471 4.375 10C4.375 7.72183 6.22183 5.875 8.5 5.875C10.0743 5.875 11.4424 6.75696 12.1376 8.05321C12.7375 7.9365 13.3607 7.875 14 7.875C14.6393 7.875 15.2625 7.9365 15.8624 8.05321C16.5576 6.75696 17.9257 5.875 19.5 5.875ZM15.5225 18.3968C15.4126 18.6012 15.2228 18.7712 14.99 18.8943C14.7145 19.04 14.3705 19.125 14 19.125C13.6296 19.125 13.2856 19.0401 13.0101 18.8944C12.7774 18.7713 12.5876 18.6014 12.4777 18.3971C11.3358 18.8209 10.4187 19.7081 9.95497 20.8301C11.1128 21.4892 12.5008 21.875 14 21.875C15.4993 21.875 16.8874 21.4892 18.0453 20.8299C17.7958 20.2257 17.4115 19.6816 16.9154 19.2378C16.5045 18.8703 16.0326 18.586 15.5225 18.3968ZM14 9.125C9.88428 9.125 6.625 12.0246 6.625 15.5C6.625 17.2987 7.49533 18.9402 8.9074 20.1082C9.80618 18.1978 11.7485 16.875 14 16.875C15.4399 16.875 16.7538 17.4162 17.7487 18.3061C18.3092 18.8075 18.7686 19.4196 19.0926 20.1082C20.5047 18.9402 21.375 17.2987 21.375 15.5C21.375 12.0246 18.1157 9.125 14 9.125ZM8.5 7.125C6.91218 7.125 5.625 8.41218 5.625 10C5.625 10.7327 5.90091 11.4166 6.37336 11.9354C7.34066 10.321 8.94287 9.05326 10.882 8.38844C10.3581 7.61513 9.47532 7.125 8.5 7.125ZM19.5 7.125C18.5254 7.125 17.6424 7.6143 17.1181 8.38845C19.0571 9.05327 20.6593 10.3209 21.6266 11.9353C22.1002 11.4156 22.375 10.7317 22.375 10C22.375 8.41218 21.0878 7.125 19.5 7.125Z" fill="#212121"/>
</svg>
