<svg width="20" height="20" viewBox="0 0 20 20" fill="none" xmlns="http://www.w3.org/2000/svg">
<path d="M10.6205 2.21107C10.2572 1.92443 9.74477 1.92443 9.38153 2.21109L6.07353 4.82157C5.26904 5.45643 5.36706 6.56408 6.01595 7.13534L4.55236 8.34153C3.58874 9.13567 3.97866 10.6134 5.06208 10.9359L3.47619 12.4218C2.49036 13.3455 3.144 14.9991 4.49495 14.9991H8.00003V16.7491C8.00003 17.4394 8.55967 17.9991 9.25003 17.9991H10.75C11.4404 17.9991 12 17.4394 12 16.7491V14.9991H15.5038C16.8552 14.9991 17.5086 13.3444 16.5218 12.4211L14.9354 10.9368C16.021 10.6161 16.4126 9.13662 15.4483 8.34167L13.9856 7.13588C14.635 6.56476 14.7333 5.45659 13.9286 4.82155L10.6205 2.21107ZM11 14.9991V16.7491C11 16.8872 10.8881 16.9991 10.75 16.9991H9.25003C9.11196 16.9991 9.00003 16.8872 9.00003 16.7491V14.9991H11ZM10.001 2.99609L13.3091 5.60657C13.6761 5.89618 13.4792 6.4849 13.0179 6.49881C12.8098 6.50508 12.6273 6.6397 12.5599 6.83673C12.4925 7.03375 12.5543 7.25193 12.715 7.38439L14.8122 9.11328C15.1741 9.41159 14.9631 9.99908 14.4941 9.99908H13.7358C13.5305 9.99908 13.3461 10.1245 13.2707 10.3154C13.1953 10.5064 13.2443 10.724 13.3941 10.8642L15.8385 13.1513C16.1631 13.4549 15.9482 13.9991 15.5038 13.9991H4.49495C4.05068 13.9991 3.83572 13.4553 4.15992 13.1515L6.6014 10.864C6.75114 10.7237 6.79996 10.5061 6.72452 10.3153C6.64909 10.1245 6.46473 9.99908 6.25953 9.99908H5.50633C5.03732 9.99908 4.8264 9.41151 5.18834 9.11323L7.28612 7.3844C7.44676 7.25201 7.50857 7.03394 7.4413 6.83695C7.37402 6.63996 7.19173 6.50526 6.98366 6.49879C6.52284 6.48447 6.32619 5.89606 6.69302 5.60658L10.001 2.99609Z" fill="#212121"/>
</svg>
