<svg width="28" height="28" viewBox="0 0 28 28" fill="none" xmlns="http://www.w3.org/2000/svg">
<path d="M14.7989 4.26867C14.3317 3.91044 13.6726 3.91044 13.2054 4.26869L8.95064 7.53119C7.91591 8.32461 8.04198 9.70891 8.87658 10.4229L6.99411 11.9303C5.75472 12.9228 6.25623 14.7696 7.64972 15.1726L5.60996 17.0297C4.34199 18.1841 5.1827 20.2507 6.92028 20.2507H11.4285V22.4378C11.4285 23.3006 12.1483 24 13.0362 24H14.9655C15.8534 24 16.5733 23.3006 16.5733 22.4378V20.2507H21.0797C22.818 20.2507 23.6583 18.1827 22.3891 17.0288L20.3487 15.1737C21.745 14.773 22.2487 12.924 21.0084 11.9305L19.1271 10.4235C19.9624 9.70977 20.0888 8.32481 19.0538 7.53116L14.7989 4.26867ZM15.2871 20.2507V22.4378C15.2871 22.6103 15.1431 22.7502 14.9655 22.7502H13.0362C12.8586 22.7502 12.7147 22.6103 12.7147 22.4378V20.2507H15.2871ZM14.0021 5.24977L18.257 8.51225C18.729 8.87419 18.4757 9.60996 17.8825 9.62734C17.6148 9.63518 17.3801 9.80343 17.2934 10.0497C17.2067 10.2959 17.2861 10.5686 17.4928 10.7341L20.1902 12.8948C20.6557 13.2676 20.3843 14.0019 19.7812 14.0019H18.8057C18.5417 14.0019 18.3045 14.1586 18.2076 14.3972C18.1106 14.6358 18.1736 14.9078 18.3663 15.083L21.5103 17.9414C21.9277 18.3209 21.6514 19.0009 21.0797 19.0009H6.92028C6.34886 19.0009 6.07239 18.3213 6.48937 17.9417L9.62958 15.0828C9.82217 14.9074 9.88496 14.6355 9.78794 14.397C9.69092 14.1586 9.45379 14.0019 9.18987 14.0019H8.2211C7.61787 14.0019 7.34659 13.2675 7.81211 12.8948L10.5103 10.7341C10.7169 10.5687 10.7964 10.2961 10.7098 10.0499C10.6233 9.80374 10.3888 9.6354 10.1212 9.62732C9.52854 9.60942 9.27561 8.87405 9.74741 8.51226L14.0021 5.24977Z" fill="#212121"/>
</svg>
